<?xml version="1.0" encoding="UTF-8"?><svg xmlns="http://www.w3.org/2000/svg" xmlns:xlink="http://www.w3.org/1999/xlink" width="375" zoomAndPan="magnify" viewBox="0 0 375 187.499995" height="187.499995" preserveAspectRatio="xMidYMid meet" version="1.0"><defs><clipPath id="clip-0"><path d="M 352 83 L 374.265625 83 L 374.265625 100 L 352 100 Z M 352 83 " clip-rule="nonzero"/></clipPath></defs><path fill="rgb(0%, 0.389099%, 0.389099%)" d="M 48.835938 124.730469 C 41.726562 126.894531 41.726562 126.894531 43.320312 132.40625 C 44.964844 130.117188 46.335938 128.210938 48.835938 124.730469 Z M 63.433594 152.078125 C 63.300781 151.621094 63.167969 151.160156 63.035156 150.703125 C 55.921875 151.925781 48.808594 153.148438 41.316406 154.433594 C 41.425781 156.558594 41.515625 158.355469 41.644531 160.890625 C 65.339844 152.160156 60.1875 154.21875 63.433594 152.078125 Z M 110.230469 156.574219 C 116.988281 152.917969 120.195312 148.128906 120.523438 141.894531 C 120.691406 138.714844 120 135.015625 118.386719 132.335938 C 116 128.363281 111.527344 128.984375 110.046875 133.417969 C 107.625 140.679688 106.566406 148.144531 110.230469 156.574219 Z M 41.324219 111.507812 C 61.25 110.695312 65.398438 115.566406 61.074219 135.332031 C 71.664062 135.992188 83.238281 133.992188 90.988281 145.453125 C 92.523438 140.570312 93.71875 136.816406 94.878906 133.054688 C 97.371094 124.953125 102.632812 119.691406 111.066406 118.480469 C 120.199219 117.171875 127.167969 121.085938 132.003906 128.804688 C 142.117188 144.941406 129.738281 169.398438 110.644531 170.976562 C 98.476562 171.984375 94.507812 161.25 91.835938 156.410156 C 79.886719 172.4375 61.992188 175.738281 44.25 179.433594 C 41.367188 180.03125 38.589844 181.152344 34.945312 182.285156 C 34.902344 182.230469 34.304688 180.769531 33.226562 180.140625 C 28.003906 177.089844 26.949219 173.242188 30.265625 168.105469 C 31.246094 166.578125 31.027344 166.773438 29.199219 134.070312 C 19.816406 136.410156 12.976562 142.808594 7.582031 153.929688 C 2.101562 151.109375 0.460938 148.535156 3.015625 143.507812 C 5.816406 137.996094 9.515625 132.796875 13.582031 128.125 C 16.515625 124.757812 20.5 122.160156 24.371094 119.800781 C 31.921875 115.199219 27.367188 110.59375 30.164062 104.011719 C 30.816406 102.480469 33.140625 100.542969 34.480469 100.703125 C 36.292969 100.921875 38.453125 102.660156 39.414062 104.34375 C 40.617188 106.445312 40.753906 109.15625 41.324219 111.507812 " fill-opacity="1" fill-rule="nonzero"/><path fill="rgb(0%, 0.389099%, 0.389099%)" d="M 116.332031 50.386719 C 116.628906 53.191406 116.566406 56.101562 117.304688 58.785156 C 118.5625 63.328125 122.011719 65.144531 126.457031 64.15625 C 137.9375 61.597656 144.160156 47.015625 138.0625 36.972656 C 135 31.933594 131.144531 30.765625 125.78125 33.5 C 118.925781 36.996094 116.1875 42.84375 116.332031 50.386719 Z M 170.179688 74.636719 C 168.304688 80.417969 166.429688 86.210938 164.285156 92.832031 C 157.199219 88.015625 157.84375 81.710938 157.558594 76.050781 C 157.273438 70.40625 157.859375 64.714844 158.128906 57.292969 C 155.828125 60.261719 154.617188 61.988281 153.242188 63.574219 C 135.597656 83.957031 108.125 80.53125 106.160156 58.160156 C 105.859375 54.753906 105.714844 51.335938 105.476562 47.925781 C 103.71875 22.757812 135.5625 3.203125 151.804688 27.390625 C 154.71875 31.730469 156.589844 36.777344 159.578125 42.800781 C 161.410156 21.808594 161.210938 15.796875 165.058594 4.644531 C 166.039062 1.800781 168.511719 -0.00390625 171.84375 0.839844 C 174.839844 1.601562 175.710938 4.070312 175.640625 6.8125 C 175.40625 15.335938 175.050781 23.859375 174.691406 33.804688 C 190.070312 24.652344 196.289062 20.382812 201.390625 22.582031 C 203.644531 23.550781 206.121094 26.039062 206.667969 28.308594 C 207.078125 30.003906 205.023438 32.96875 203.265625 34.367188 C 199.050781 37.726562 194.0625 40.136719 189.957031 43.609375 C 186.164062 46.820312 183.121094 50.917969 178.429688 56.074219 C 197.945312 61.929688 178.371094 56.933594 221.394531 65.441406 C 223.523438 65.859375 225.503906 67.039062 227.683594 67.917969 C 219.128906 80.542969 196.78125 82.976562 170.179688 74.636719 " fill-opacity="1" fill-rule="nonzero"/><path fill="rgb(0%, 0.389099%, 0.389099%)" d="M 224.382812 134.417969 C 229.054688 126.933594 232.460938 118.894531 234.546875 110.265625 C 234.945312 108.609375 234.835938 106.550781 235.804688 105.378906 C 237.121094 103.800781 239.289062 101.90625 241.015625 101.980469 C 242.742188 102.050781 244.859375 104.082031 245.90625 105.804688 C 246.851562 107.355469 246.839844 109.652344 246.808594 111.613281 C 246.039062 161.945312 246.152344 162.359375 243.6875 167.730469 C 241.703125 172.058594 237.742188 172.195312 235.132812 168.148438 C 233.941406 166.304688 233.382812 163.980469 232.84375 161.800781 C 232.242188 159.382812 231.992188 156.875 231.496094 153.851562 C 221.753906 167.582031 213.382812 167.949219 205.613281 151.574219 C 203.730469 156.121094 199.773438 167.273438 194.476562 173.796875 C 193.3125 175.230469 190.285156 176.394531 188.679688 175.878906 C 187.046875 175.351562 185.335938 172.710938 185.085938 170.808594 C 184.730469 168.101562 185.226562 165.0625 186.15625 162.449219 C 195.5625 135.917969 204.132812 123.632812 203.46875 108.242188 C 203.390625 106.367188 203.9375 103.839844 205.179688 102.675781 C 207.074219 100.898438 209.839844 99.085938 212.21875 99.109375 C 214.164062 99.125 216.695312 101.445312 217.84375 103.402344 C 219.058594 105.476562 219.039062 108.320312 219.390625 110.847656 C 220.472656 118.660156 221.480469 126.480469 222.515625 134.296875 C 223.136719 134.339844 223.757812 134.378906 224.382812 134.417969 " fill-opacity="1" fill-rule="nonzero"/><path fill="rgb(0%, 0.389099%, 0.389099%)" d="M 345.273438 117.84375 C 345.269531 117.027344 345.265625 116.207031 345.257812 115.386719 C 342.058594 114.070312 338.855469 112.753906 334.988281 111.167969 C 334.835938 115.390625 334.722656 118.515625 334.574219 122.578125 C 338.746094 120.730469 342.011719 119.289062 345.273438 117.84375 Z M 332.472656 141.441406 C 329.402344 150.03125 331.15625 158.324219 323.652344 164.46875 C 322.03125 162.558594 319.769531 161.007812 319.191406 158.976562 C 316.832031 150.675781 317.535156 146.996094 318.792969 112.085938 C 317.097656 113.730469 315.808594 114.925781 314.582031 116.1875 C 305.828125 125.183594 297.109375 107.214844 308.023438 99.511719 C 312.347656 96.464844 317.53125 94.636719 323.179688 91.851562 C 323.75 90.464844 324.355469 87.84375 325.824219 85.855469 C 326.816406 84.507812 329.023438 83.414062 330.683594 83.417969 C 331.847656 83.417969 333.523438 85.265625 334.054688 86.640625 C 334.945312 88.96875 335.109375 91.582031 335.585938 94.113281 C 339.597656 95.984375 343.710938 97.390625 347.238281 99.695312 C 351.003906 102.152344 354.804688 104.992188 357.554688 108.484375 C 362.910156 115.289062 361.890625 124.019531 355.652344 130.242188 C 353.667969 132.226562 351.339844 133.867188 348.585938 136.148438 C 364.9375 157.980469 364.570312 156.988281 365.613281 159.597656 C 366.523438 161.875 366.742188 165.832031 365.390625 167.234375 C 363.917969 168.769531 359.671875 169.382812 357.726562 168.34375 C 353.84375 166.269531 350.359375 163.105469 347.359375 159.800781 C 344.511719 156.660156 342.675781 152.625 340.054688 149.257812 C 338.050781 146.679688 335.507812 144.527344 332.472656 141.441406 " fill-opacity="1" fill-rule="nonzero"/><path fill="rgb(0%, 0.389099%, 0.389099%)" d="M 157.910156 159.8125 C 167.742188 154.878906 172.808594 146.128906 171.113281 137.617188 C 170.453125 134.277344 169.859375 130.683594 165.335938 130.28125 C 161.144531 129.910156 156.054688 132.695312 155.464844 136.8125 C 154.382812 144.351562 153.625 152.070312 157.910156 159.8125 Z M 138.457031 145.6875 C 139.097656 130.84375 146.96875 120.449219 161.273438 115.976562 C 169.691406 113.347656 177.132812 115.308594 182.957031 122.019531 C 188.929688 128.902344 190.933594 137.039062 189.363281 145.988281 C 187.195312 158.296875 172.125 172.292969 159.753906 173.722656 C 153.121094 174.488281 148.117188 171.753906 144.167969 166.710938 C 139.328125 160.523438 138.21875 153.277344 138.457031 145.6875 " fill-opacity="1" fill-rule="nonzero"/><path fill="rgb(0%, 0.389099%, 0.389099%)" d="M 299.414062 150.332031 C 294.746094 161.710938 285.644531 165.898438 275.117188 166.867188 C 268.882812 167.445312 263.957031 163.460938 261.832031 157.808594 C 255.820312 141.820312 258.183594 137.800781 262.679688 111.832031 C 263.019531 109.882812 264.03125 108.0625 264.46875 106.125 C 266.441406 97.414062 267.34375 96.304688 275.832031 94.945312 C 280.597656 94.179688 285.453125 93.816406 290.277344 93.640625 C 293.992188 93.503906 297.578125 94.300781 300.804688 98.132812 C 293.945312 104.75 284.515625 104.976562 276.449219 109.492188 C 276.335938 112.675781 276.207031 116.234375 276.070312 120.003906 C 282.222656 122.230469 288.46875 124.492188 295.308594 126.972656 C 290.179688 135.355469 282.246094 135.070312 275.144531 137 C 274.96875 138.175781 274.671875 139.261719 274.667969 140.351562 C 274.582031 157.59375 279.058594 155.023438 299.414062 150.332031 " fill-opacity="1" fill-rule="nonzero"/><path fill="rgb(0%, 0.389099%, 0.389099%)" d="M 117.128906 3.027344 C 112.648438 8.652344 107.960938 13.816406 104.132812 19.558594 C 100.398438 25.160156 97.554688 31.351562 94.320312 37.285156 C 93.1875 29.945312 98.515625 16.964844 106.285156 8.128906 C 110.535156 3.292969 111.574219 2.78125 117.128906 3.027344 " fill-opacity="1" fill-rule="nonzero"/><path fill="rgb(0%, 0.389099%, 0.389099%)" d="M 127.210938 9.582031 C 121.664062 14.679688 116.476562 18.632812 112.328125 23.480469 C 108.117188 28.402344 104.9375 34.207031 100.675781 40.566406 C 100.597656 38.667969 100.246094 37.480469 100.554688 36.492188 C 103.3125 27.59375 107.984375 19.820312 114.898438 13.546875 C 118.03125 10.699219 121.429688 7.976562 127.210938 9.582031 " fill-opacity="1" fill-rule="nonzero"/><path fill="rgb(0%, 0.389099%, 0.389099%)" d="M 266.453125 93.433594 C 265.179688 90.363281 264.25 88.117188 263.355469 85.960938 C 268.359375 80.753906 270.0625 80.167969 279.035156 80.789062 C 277.632812 82.710938 276.480469 84.292969 274.9375 86.410156 C 278.082031 85.941406 280.753906 85.539062 283.421875 85.136719 C 283.570312 85.519531 283.714844 85.898438 283.859375 86.28125 C 277.761719 89.320312 280.78125 88.164062 266.453125 93.433594 " fill-opacity="1" fill-rule="nonzero"/><path fill="rgb(0%, 0.389099%, 0.389099%)" d="M 86.796875 114.109375 C 84.132812 113.054688 83.777344 111.039062 84.773438 109.160156 C 89.332031 100.585938 93.578125 94.601562 106.78125 88.523438 C 104.996094 91.054688 104.46875 92.082031 103.691406 92.855469 C 100.679688 95.832031 97.226562 98.441406 94.621094 101.730469 C 91.726562 105.386719 89.578125 109.628906 86.796875 114.109375 " fill-opacity="1" fill-rule="nonzero"/><path fill="rgb(0%, 0.389099%, 0.389099%)" d="M 91.015625 125.222656 C 87.898438 121.398438 89.019531 118.882812 90.742188 116.492188 C 94.390625 111.417969 99.421875 108.785156 107.242188 107.230469 C 101.148438 113.988281 96.332031 119.328125 91.015625 125.222656 " fill-opacity="1" fill-rule="nonzero"/><path fill="rgb(0%, 0.389099%, 0.389099%)" d="M 344.921875 92.792969 C 347.183594 88.566406 350.46875 90.210938 353.046875 91.003906 C 359.128906 92.875 364.34375 95.917969 365.539062 103.421875 C 358.699219 99.894531 352.234375 96.558594 344.921875 92.792969 " fill-opacity="1" fill-rule="nonzero"/><path fill="rgb(0%, 0.389099%, 0.389099%)" d="M 148.59375 182.320312 C 141.9375 184.230469 136.375 186.992188 131.664062 181.140625 C 129.996094 179.074219 127.699219 177.261719 129.402344 173.183594 C 131.796875 175.433594 133.695312 177.222656 135.679688 179.089844 C 136.515625 177.34375 137.195312 175.910156 138.214844 173.773438 C 139.992188 175.824219 141.207031 177.605469 142.792969 178.941406 C 144.257812 180.167969 146.125 180.914062 148.59375 182.320312 " fill-opacity="1" fill-rule="nonzero"/><g clip-path="url(#clip-0)"><path fill="rgb(0%, 0.389099%, 0.389099%)" d="M 352.601562 85.914062 C 353.980469 82.445312 355.957031 83.4375 357.808594 84.039062 C 365.582031 86.578125 369.941406 90.566406 374.09375 99.804688 C 360.785156 90.203125 366.609375 93.894531 352.601562 85.914062 " fill-opacity="1" fill-rule="nonzero"/></g><path fill="rgb(0%, 0.389099%, 0.389099%)" d="M 146.082031 119.214844 C 142.738281 116.988281 142.929688 114.402344 144.171875 112.101562 C 146.957031 106.949219 151.78125 105.136719 158.019531 105.449219 C 154.160156 109.898438 150.300781 114.347656 146.082031 119.214844 " fill-opacity="1" fill-rule="nonzero"/><path fill="rgb(0%, 0.389099%, 0.389099%)" d="M 52.449219 89.773438 C 56.304688 87.433594 59.007812 88.992188 61.382812 91.21875 C 64.503906 94.148438 66.453125 97.644531 65.816406 104.152344 C 61.339844 97.832031 55.007812 95.765625 52.449219 89.773438 " fill-opacity="1" fill-rule="nonzero"/><path fill="rgb(0%, 0.389099%, 0.389099%)" d="M 197.140625 85.398438 C 191.085938 87.957031 184.921875 88.808594 178.613281 87.378906 C 177.589844 87.148438 176.832031 85.75 174.847656 83.816406 C 183.445312 82.816406 190.273438 84.015625 197.140625 85.398438 " fill-opacity="1" fill-rule="nonzero"/><path fill="rgb(0%, 0.389099%, 0.389099%)" d="M 63.203125 112.046875 C 58.90625 107.148438 53.613281 104.316406 46.035156 103.578125 C 55.160156 98.0625 62.023438 101.894531 63.203125 112.046875 " fill-opacity="1" fill-rule="nonzero"/><path fill="rgb(0%, 0.389099%, 0.389099%)" d="M 223.574219 100.203125 C 225.390625 99.050781 226.765625 98.175781 228.839844 96.859375 C 229.347656 98.960938 229.945312 100.675781 230.152344 102.4375 C 230.453125 105.042969 228.570312 104.59375 226.6875 104.378906 C 226.359375 106.84375 226.03125 109.304688 225.65625 112.117188 C 223.0625 109.144531 223.0625 109.144531 223.574219 100.203125 " fill-opacity="1" fill-rule="nonzero"/><path fill="rgb(0%, 0.389099%, 0.389099%)" d="M 129.246094 35.28125 C 126.105469 41.710938 123.457031 47.136719 120.457031 53.285156 C 118 48.695312 120.460938 44.921875 121.667969 41.320312 C 122.683594 38.296875 124.371094 35.230469 129.246094 35.28125 " fill-opacity="1" fill-rule="nonzero"/><path fill="rgb(0%, 0.389099%, 0.389099%)" d="M 198.171875 180.261719 C 200.066406 171.414062 201.429688 169.082031 207.167969 164.746094 C 207.429688 166.5625 208.226562 168.234375 207.730469 169.304688 C 205.816406 173.40625 203.164062 177.019531 198.171875 180.261719 " fill-opacity="1" fill-rule="nonzero"/><path fill="rgb(0%, 0.389099%, 0.389099%)" d="M 348.503906 172.289062 C 342.613281 169.480469 336.648438 166.761719 332.839844 158.597656 C 340.421875 162.304688 344.882812 166.800781 348.503906 172.289062 " fill-opacity="1" fill-rule="nonzero"/><path fill="rgb(0%, 0.389099%, 0.389099%)" d="M 267.03125 181.144531 C 274.273438 180.628906 279.75 180.238281 285.828125 179.804688 C 279.964844 184.839844 274.429688 185.46875 267.03125 181.144531 " fill-opacity="1" fill-rule="nonzero"/><path fill="rgb(0%, 0.389099%, 0.389099%)" d="M 287.707031 171.886719 C 281.996094 175.097656 275.945312 174.605469 267.808594 173.484375 C 275.585938 171.085938 281.601562 171.253906 287.707031 171.886719 " fill-opacity="1" fill-rule="nonzero"/><path fill="rgb(0%, 0.389099%, 0.389099%)" d="M 178.792969 14.003906 C 178.164062 9.332031 177.050781 5.183594 179.78125 1.078125 C 183.523438 4.769531 183.300781 8.085938 178.792969 14.003906 " fill-opacity="1" fill-rule="nonzero"/><path fill="rgb(0%, 0.389099%, 0.389099%)" d="M 23.25 156.25 C 20.753906 153.277344 20.457031 150.359375 22.882812 146.65625 C 25.621094 150.496094 23.757812 153.367188 23.25 156.25 " fill-opacity="1" fill-rule="nonzero"/><path fill="rgb(99.609375%, 93.328857%, 0%)" d="M 335.242188 98.847656 C 325.363281 99.101562 316.132812 101.050781 308.742188 108.058594 C 309.101562 105.449219 308.632812 102.871094 310.59375 100.890625 C 312.738281 98.714844 315.53125 97.367188 318.441406 96.542969 C 324.390625 94.859375 330.207031 94.847656 335.242188 98.847656 " fill-opacity="1" fill-rule="nonzero"/><path fill="rgb(99.609375%, 93.328857%, 0%)" d="M 105.871094 126.042969 C 101.761719 133.492188 97.652344 140.941406 93.542969 148.390625 C 93.265625 143.003906 94.519531 137.785156 96.929688 132.984375 C 100.398438 126.074219 101.347656 125.761719 103.097656 125.125 C 103.273438 125.058594 104.5625 124.480469 104.726562 124.527344 C 105.0625 124.613281 105.679688 125.792969 105.871094 126.042969 " fill-opacity="1" fill-rule="nonzero"/><path fill="rgb(99.609375%, 93.328857%, 0%)" d="M 149.226562 130.660156 C 147.019531 137.65625 144.804688 144.652344 142.597656 151.648438 C 140.476562 146.832031 141.550781 142.113281 143.058594 137.320312 C 143.507812 135.886719 143.742188 133.882812 144.734375 132.6875 C 145.78125 131.433594 147.753906 131.097656 149.226562 130.660156 " fill-opacity="1" fill-rule="nonzero"/><path fill="rgb(99.609375%, 93.328857%, 0%)" d="M 198.363281 144.199219 C 199.5625 138.667969 200.511719 133.027344 205.195312 129.050781 C 205.085938 135.066406 202.515625 139.984375 198.363281 144.199219 " fill-opacity="1" fill-rule="nonzero"/><path fill="rgb(99.609375%, 93.328857%, 0%)" d="M 16.210938 132.972656 C 12.933594 136.539062 9.65625 140.109375 6.03125 144.054688 C 5.945312 138.609375 7.488281 136.75 16.210938 132.972656 " fill-opacity="1" fill-rule="nonzero"/><path fill="rgb(99.609375%, 93.328857%, 0%)" d="M 182.121094 131.648438 C 179.601562 128.082031 177.257812 124.765625 174.765625 121.238281 C 181.152344 122.328125 182.453125 124.175781 182.121094 131.648438 " fill-opacity="1" fill-rule="nonzero"/><path fill="rgb(99.609375%, 93.328857%, 0%)" d="M 56.292969 133.171875 C 56.183594 128.253906 56.101562 124.621094 56 119.96875 C 60.589844 125.101562 60.617188 126.488281 56.292969 133.171875 " fill-opacity="1" fill-rule="nonzero"/><path fill="rgb(99.609375%, 93.328857%, 0%)" d="M 170.253906 8.039062 C 169.210938 11.921875 168.164062 15.804688 167.125 19.6875 C 166.125 15.304688 165.5625 11.023438 170.253906 8.039062 " fill-opacity="1" fill-rule="nonzero"/><path fill="rgb(99.609375%, 93.328857%, 0%)" d="M 145.59375 28.867188 C 142.324219 26.757812 139.050781 24.644531 134.75 21.867188 C 141.113281 21.378906 143.894531 24.269531 145.59375 28.867188 " fill-opacity="1" fill-rule="nonzero"/><path fill="rgb(99.609375%, 93.328857%, 0%)" d="M 275.46875 100.035156 C 278.820312 96.976562 281.742188 96.5 286.566406 97.59375 C 282.382812 99.386719 279.578125 100.375 275.46875 100.035156 " fill-opacity="1" fill-rule="nonzero"/></svg>